<svg width="32" height="33" viewBox="0 0 32 33" fill="none" xmlns="http://www.w3.org/2000/svg">
<path d="M16 0.978027C7.15447 0.978027 0 8.1325 0 16.978C0 25.8236 7.15447 32.978 16 32.978C24.8455 32.978 32 25.8236 32 16.978C32 8.1325 24.8455 0.978027 16 0.978027Z" fill="#3C64B1"/>
<path d="M19.914 14.2563C18.127 14.2563 17.3147 15.2311 16.9085 15.9622V14.5H13.5781C13.6594 15.4748 13.5781 24.6537 13.5781 24.6537H16.9085V18.9677C16.9085 18.6427 16.9085 18.399 16.9898 18.1554C17.2334 17.5868 17.8021 16.9369 18.6956 16.9369C19.914 16.9369 20.4014 17.8304 20.4014 19.2113V24.6537H23.813V18.8052C23.813 15.7185 22.1072 14.2563 19.914 14.2563Z" fill="white"/>
<path d="M9.92296 9.62646C8.78575 9.62646 8.05469 10.3575 8.05469 11.4135C8.05469 12.3883 8.78575 13.2006 9.92296 13.2006C11.0602 13.2006 11.7912 12.3883 11.7912 11.4135C11.7912 10.3575 11.1414 9.62646 9.92296 9.62646Z" fill="white"/>
<path d="M11.6295 14.5009H8.2179V24.6545H11.6295V14.5009Z" fill="white"/>
</svg>
