<svg width="32" height="33" viewBox="0 0 32 33" fill="none" xmlns="http://www.w3.org/2000/svg">
<path d="M16 0.978027C7.15447 0.978027 0 8.1325 0 16.978C0 25.8236 7.15447 32.978 16 32.978C24.8455 32.978 32 25.8236 32 16.978C32 8.1325 24.8455 0.978027 16 0.978027ZM20.2276 16.913H17.4959C17.4959 21.3358 17.4959 26.7992 17.4959 26.7992H13.3984C13.3984 26.7992 13.3984 21.4008 13.3984 16.913H11.4472V13.4008H13.3984V11.1244C13.3984 9.49835 14.1789 6.96177 17.561 6.96177H20.6179V10.3439C20.6179 10.3439 18.7968 10.3439 18.4065 10.3439C18.0163 10.3439 17.561 10.539 17.561 11.3195V13.4008H20.6829L20.2276 16.913Z" fill="#3C64B1"/>
</svg>
