<svg width="32" height="33" viewBox="0 0 32 33" fill="none" xmlns="http://www.w3.org/2000/svg">
<path d="M9.17088 18.3283H10.3416V24.1169H11.4473V18.3283H12.618V17.3527H9.17088V18.3283Z" fill="#3C64B1"/>
<path d="M16.065 13.5153C16.1951 13.5153 16.3252 13.4502 16.4553 13.3852C16.5203 13.3202 16.5854 13.1901 16.5854 13.06V10.0681C16.5854 9.93805 16.5203 9.87301 16.4553 9.80797C16.3902 9.74293 16.2602 9.67789 16.065 9.67789C15.935 9.67789 15.8049 9.74293 15.7398 9.80797C15.6098 9.87301 15.6098 9.93805 15.6098 10.0681V13.06C15.6098 13.1901 15.6748 13.3202 15.7398 13.3852C15.8049 13.5153 15.935 13.5153 16.065 13.5153Z" fill="#3C64B1"/>
<path d="M18.5367 19.0437C18.4067 19.0437 18.2115 19.1088 18.0814 19.1738C17.9514 19.2388 17.8213 19.3689 17.6262 19.499V17.3527H16.6506V24.1169H17.6262V23.7266C17.7562 23.8567 17.8863 23.9868 18.0814 24.0519C18.2115 24.1169 18.4067 24.1819 18.6018 24.1819C18.927 24.1819 19.1221 24.1169 19.2522 23.9218C19.3823 23.7266 19.5123 23.4665 19.5123 23.1413V20.4096C19.5123 20.0193 19.4473 19.6941 19.2522 19.499C19.0571 19.1738 18.8619 19.0437 18.5367 19.0437ZM18.4717 22.9462C18.4717 23.0762 18.4717 23.2063 18.4067 23.2714C18.3416 23.3364 18.2766 23.4014 18.1465 23.4014C18.0814 23.4014 18.0164 23.4014 17.8863 23.3364C17.8213 23.2714 17.7562 23.2714 17.6262 23.1413V20.0193C17.6912 19.9543 17.7562 19.8893 17.8213 19.8893C17.8863 19.8242 17.9514 19.8242 18.0164 19.8242C18.1465 19.8242 18.2766 19.8893 18.3416 19.9543C18.4067 20.0193 18.4717 20.1494 18.4717 20.3445V22.9462Z" fill="#3C64B1"/>
<path d="M14.8945 22.8811C14.8294 23.0112 14.6993 23.0763 14.5693 23.1413C14.4392 23.2063 14.3741 23.2714 14.3091 23.2714C14.2441 23.2714 14.179 23.2714 14.114 23.2063C14.0489 23.1413 14.0489 23.0763 14.0489 22.9462V19.1088H13.0733V23.2714C13.0733 23.5966 13.1384 23.7917 13.2684 23.9218C13.3985 24.0519 13.5286 24.1169 13.7888 24.1169C13.9839 24.1169 14.179 24.0519 14.3741 23.9868C14.5693 23.8567 14.7644 23.7267 14.9595 23.5315V24.0519H15.9351V19.1088H14.9595V22.8811H14.8945Z" fill="#3C64B1"/>
<path d="M16 0.962402C7.15447 0.962402 0 8.11687 0 16.9624C0 25.8079 7.15447 32.9624 16 32.9624C24.8455 32.9624 32 25.8079 32 16.9624C32 8.11687 24.8455 0.962402 16 0.962402ZM19.7073 8.89736V13.125C19.7073 13.2551 19.7073 13.3201 19.7724 13.3852C19.8374 13.4502 19.9024 13.4502 19.9675 13.4502C20.0325 13.4502 20.1626 13.3852 20.2927 13.3201C20.4228 13.2551 20.5528 13.125 20.6179 12.9949V8.83232H21.7236V14.2957H20.6179V13.7104C20.4228 13.9055 20.2276 14.1006 19.9675 14.2307C19.7724 14.3608 19.5122 14.4258 19.3171 14.4258C19.0569 14.4258 18.8618 14.3608 18.7317 14.1657C18.6016 14.0356 18.5366 13.7754 18.5366 13.4502V8.89736H19.7073ZM14.439 10.1331C14.439 9.67785 14.5691 9.35265 14.8943 9.09248C15.2195 8.83232 15.6098 8.70224 16.1301 8.70224C16.5854 8.70224 16.9756 8.83232 17.3008 9.09248C17.626 9.35265 17.7561 9.67785 17.7561 10.1331V12.9299C17.7561 13.3852 17.626 13.7754 17.3008 14.0356C17.0406 14.2957 16.5854 14.4258 16.1301 14.4258C15.6098 14.4258 15.2195 14.2957 14.9593 14.0356C14.6341 13.7754 14.5041 13.3852 14.5041 12.9299V10.1331H14.439ZM11.3821 6.94614L12.2276 9.93801H12.2927L13.0732 6.94614H14.374L12.878 11.3039V14.3608H11.6423V11.4339L10.1463 6.94614H11.3821ZM26.0813 22.5559C26.0813 24.5071 24.4553 26.1331 22.5041 26.1331H10.0163C8.06504 26.1331 6.43902 24.5071 6.43902 22.5559V19.6941C6.43902 17.7429 8.06504 16.1169 10.0163 16.1169H22.5041C24.4553 16.1169 26.0813 17.7429 26.0813 19.6941V22.5559Z" fill="#3C64B1"/>
<path d="M21.5288 18.9787C21.0735 18.9787 20.7483 19.1088 20.4231 19.3689C20.1629 19.6291 19.9678 20.0193 19.9678 20.4096V22.621C19.9678 23.0762 20.0979 23.4665 20.358 23.7266C20.6182 23.9868 20.9434 24.1169 21.3987 24.1169C21.919 24.1169 22.2442 23.9868 22.5044 23.7266C22.7645 23.4665 22.8946 23.0762 22.8946 22.5559V22.4258H21.854V22.621C21.854 22.9462 21.7889 23.0762 21.7239 23.2063C21.6588 23.2714 21.5288 23.3364 21.3987 23.3364C21.2686 23.3364 21.1385 23.2714 21.0735 23.2063C21.0084 23.0762 21.0084 22.9462 21.0084 22.686V21.7754H22.8946V20.4746C22.8946 20.0193 22.7645 19.6291 22.5044 19.3689C22.3092 19.1088 21.984 18.9787 21.5288 18.9787ZM21.919 20.9299H21.0084V20.4746C21.0084 20.2795 21.0084 20.0844 21.1385 20.0193C21.2036 19.9543 21.3336 19.8893 21.4637 19.8893C21.5938 19.8893 21.7239 19.9543 21.7889 20.0193C21.854 20.0844 21.919 20.2795 21.919 20.4746V20.9299Z" fill="#3C64B1"/>
</svg>
