<svg width="32" height="33" viewBox="0 0 32 33" fill="none" xmlns="http://www.w3.org/2000/svg">
<path d="M16 0.962402C7.15447 0.962402 0 8.11687 0 16.9624C0 25.8079 7.15447 32.9624 16 32.9624C24.8455 32.9624 32 25.8079 32 16.9624C32 8.11687 24.8455 0.962402 16 0.962402ZM24.065 13.7754C24.065 13.9705 24.065 14.1006 24.065 14.2957C24.065 19.6291 20.0325 25.8079 12.5528 25.8079C10.2764 25.8079 8.13008 25.1575 6.37398 23.9868C6.69919 24.0518 7.02439 24.0518 7.34959 24.0518C9.23577 24.0518 10.9919 23.4014 12.3577 22.2957C10.6016 22.2307 9.10569 21.125 8.58537 19.499C8.84553 19.564 9.10569 19.564 9.36585 19.564C9.7561 19.564 10.0813 19.499 10.4065 19.4339C8.58537 19.0437 7.15447 17.4177 7.15447 15.4665V15.4014C7.6748 15.7266 8.3252 15.8567 8.97561 15.9218C7.86992 15.2063 7.15447 13.9705 7.15447 12.5396C7.15447 11.8242 7.34959 11.1087 7.6748 10.5234C9.69106 12.9949 12.6179 14.5559 16 14.751C15.935 14.4258 15.8699 14.1657 15.8699 13.8405C15.8699 11.6291 17.6911 9.80793 19.9024 9.80793C21.0732 9.80793 22.1138 10.3283 22.8293 11.1087C23.7398 10.9136 24.5854 10.5884 25.3659 10.1331C25.0406 11.1087 24.4553 11.8892 23.6098 12.3445C24.4553 12.2144 25.2358 12.0193 25.9512 11.6941C25.561 12.4746 24.8455 13.19 24.065 13.7754Z" fill="#3C64B1"/>
</svg>
