<svg width="32" height="32" viewBox="0 0 32 32" fill="none" xmlns="http://www.w3.org/2000/svg">
<path d="M4.33333 31H27.6667C29.5076 31 31 29.5076 31 27.6667V4.33333C31 2.49238 29.5076 1 27.6667 1H4.33333C2.49238 1 1 2.49238 1 4.33333V27.6667C1 29.5076 2.49238 31 4.33333 31ZM4.33333 31L22.6667 12.6666L31 21M12.6666 10.1666C12.6666 11.5474 11.5474 12.6666 10.1666 12.6666C8.78593 12.6666 7.66664 11.5474 7.66664 10.1666C7.66664 8.78593 8.78593 7.66664 10.1666 7.66664C11.5474 7.66664 12.6666 8.78593 12.6666 10.1666Z" stroke="#3C64B1" stroke-width="1.5" stroke-linecap="round" stroke-linejoin="round"/>
</svg>
